# xmcd
#
# Track frame offsets:
# 150
# 25355
# 44410
# 64515
# 81844
# 97823
# 113727
# 133307
# 156786
# 174640
# 187094
# 201498
# 219428
# 238183
#
# Disc length: 3450 seconds
#
#
# Revision: 0
# Processed by: cddbd v1.5.2PL0 Copyright (c) Steve Scherf et al.
# Submitted via: FreeRIP 2.951 
#
DISCID=c90d780e
DTITLE=J.J. Cale and Eric Clapton - Road To Escondido 
DYEAR=2006
DGENRE=Blues
TTITLE0=Danger
TTITLE1=Heads In Georgia
TTITLE2=Missing Person
TTITLE3=When This War Is Over
TTITLE4=Sporting Life Blues
TTITLE5=Dead End Road
TTITLE6=It's Easy
TTITLE7=Hard To Thrill
TTITLE8=Anyway The Wind Blows
TTITLE9=Three Little Girls
TTITLE10=Don't Cry Sister
TTITLE11=Last Will And Testament
TTITLE12=Who Am I Telling You?
TTITLE13=Ride The River
EXTD=
EXTT0=
EXTT1=
EXTT2=
EXTT3=
EXTT4=
EXTT5=
EXTT6=
EXTT7=
EXTT8=
EXTT9=
EXTT10=
EXTT11=
EXTT12=
EXTT13=
PLAYORDER=
